<?xml version="1.0" standalone="no"?>
<!DOCTYPE svg PUBLIC "-//W3C//DTD SVG 20010904//EN"
 "http://www.w3.org/TR/2001/REC-SVG-20010904/DTD/svg10.dtd">
<svg version="1.0" xmlns="http://www.w3.org/2000/svg"
 width="450.000000pt" height="450.000000pt" viewBox="0 0 450.000000 450.000000"
 preserveAspectRatio="xMidYMid meet">

<g transform="translate(0.000000,450.000000) scale(0.100000,-0.100000)"
fill="#000000" stroke="none">
<path d="M1462 3184 c-50 -35 -50 -30 -50 -625 0 -530 0 -558 19 -588 l19 -31
89 0 c70 0 91 3 102 17 11 13 15 110 19 502 l5 486 493 5 494 5 20 25 c18 22
20 36 16 113 -3 62 -8 91 -19 98 -8 5 -265 9 -599 9 -515 0 -588 -2 -608 -16z"/>
<path d="M2010 2743 c-40 -16 -90 -55 -106 -85 -17 -30 -19 -65 -22 -376 l-3
-343 334 3 334 3 41 28 c23 15 54 46 69 69 l28 41 3 334 3 333 -333 -1 c-183
0 -340 -3 -348 -6z"/>
<path d="M2898 2248 l-3 -503 -499 -2 c-392 -2 -501 -5 -508 -15 -9 -15 -11
-189 -2 -212 6 -14 68 -16 602 -16 l596 0 28 27 28 27 0 576 c0 505 -2 578
-16 598 -14 20 -23 22 -119 22 l-105 0 -2 -502z"/>
</g>
</svg>
